HIERARCHY
ROOT SpineBase
{
  OFFSET 0.000000 0.000000 0.000000
  CHANNELS 6 Xposition Yposition Zposition Zrotation Xrotation Yrotation
  JOINT SpineMid
  {
    OFFSET 0.000000 26.079703 0.000000
    CHANNELS 3 Zrotation Xrotation Yrotation
    JOINT SpineShoulder
    {
      OFFSET -0.219643 19.445690 -0.657830
      CHANNELS 3 Zrotation Xrotation Yrotation
      JOINT Neck
      {
        OFFSET -0.138072 6.491924 -0.504587
        CHANNELS 3 Zrotation Xrotation Yrotation
        JOINT Head
        {
          OFFSET -3.775926 10.375965 1.156919
          CHANNELS 3 Zrotation Xrotation Yrotation
          End Site
          {
            OFFSET 0 0 0
          }
        }
      }
      JOINT ShoulderLeft
      {
        OFFSET -12.349163 -3.325375 5.044114
        CHANNELS 3 Zrotation Xrotation Yrotation
        JOINT ElbowLeft
        {
          OFFSET -0.889012 -22.904279 1.628369
          CHANNELS 3 Zrotation Xrotation Yrotation
          JOINT WristLeft
          {
            OFFSET -1.667455 -18.621892 -4.464386
            CHANNELS 3 Zrotation Xrotation Yrotation
            JOINT HandLeft
            {
              OFFSET -0.888977 -6.370030 -1.259771
              CHANNELS 3 Zrotation Xrotation Yrotation
              JOINT HandTipLeft
              {
                OFFSET -1.115349 -5.459135 -1.882469
                CHANNELS 3 Zrotation Xrotation Yrotation
                End Site
                {
                  OFFSET 0 0 0
                }
              }
              JOINT ThumbLeft
              {
                OFFSET -2.893584 -0.054474 -1.543282
                CHANNELS 3 Zrotation Xrotation Yrotation
                End Site
                {
                  OFFSET 0 0 0
                }
              }
            }
          }
        }
      }
      JOINT ShoulderRight
      {
        OFFSET 10.305118 -1.978579 -8.295271
        CHANNELS 3 Zrotation Xrotation Yrotation
        JOINT ElbowRight
        {
          OFFSET 4.550451 -20.798522 -3.408019
          CHANNELS 3 Zrotation Xrotation Yrotation
          JOINT WristRight
          {
            OFFSET -1.213862 -18.199997 -6.266516
            CHANNELS 3 Zrotation Xrotation Yrotation
            JOINT HandRight
            {
              OFFSET -0.967697 -7.621604 -1.342472
              CHANNELS 3 Zrotation Xrotation Yrotation
              JOINT HandTipRight
              {
                OFFSET -0.756401 -5.094764 -2.595669
                CHANNELS 3 Zrotation Xrotation Yrotation
                End Site
                {
                  OFFSET 0 0 0
                }
              }
              JOINT ThumbRight
              {
                OFFSET -2.280793 0.216593 -0.028712
                CHANNELS 3 Zrotation Xrotation Yrotation
                End Site
                {
                  OFFSET 0 0 0
                }
              }
            }
          }
        }
      }
    }
  }
  JOINT HipLeft
  {
    OFFSET -5.108175 0.301553 -0.648441
    CHANNELS 3 Zrotation Xrotation Yrotation
    JOINT KneeLeft
    {
      OFFSET 6.914412 -35.623016 2.083975
      CHANNELS 3 Zrotation Xrotation Yrotation
      JOINT AnkleLeft
      {
        OFFSET 5.638907 -30.690601 5.313647
        CHANNELS 3 Zrotation Xrotation Yrotation
        JOINT FootLeft
        {
          OFFSET -0.528860 -3.833088 -8.534787
          CHANNELS 3 Zrotation Xrotation Yrotation
          End Site
          {
            OFFSET 0 0 0
          }
        }
      }
    }
  }
  JOINT HipRight
  {
    OFFSET 4.734442 1.334540 -5.352838
    CHANNELS 3 Zrotation Xrotation Yrotation
    JOINT KneeRight
    {
      OFFSET 8.036083 -33.504073 -2.144280
      CHANNELS 3 Zrotation Xrotation Yrotation
      JOINT AnkleRight
      {
        OFFSET 3.664860 -33.294912 4.362867
        CHANNELS 3 Zrotation Xrotation Yrotation
        JOINT FootRight
        {
          OFFSET -4.163692 -4.833094 -3.234897
          CHANNELS 3 Zrotation Xrotation Yrotation
          End Site
          {
            OFFSET 0 0 0
          }
        }
      }
    }
  }
}
MOTION
Frames: 14
Frame Time: 0.033333
21.503029 82.989066 363.413637 -0.000000 0.000000 25.546028 -0.000000 0.000000 -25.546028 -0.000000 0.000000 0.000000 -0.000000 0.000000 0.000000 0.000000 0.000000 0.000000 -0.000000 0.000000 0.000000 -0.000000 0.000000 0.000000 -0.000000 0.000000 0.000000 -0.000000 0.000000 0.000000 0.000000 0.000000 0.000000 0.000000 0.000000 0.000000 -0.000000 0.000000 0.000000 -0.000000 0.000000 0.000000 -0.000000 0.000000 0.000000 -0.000000 0.000000 0.000000 0.000000 0.000000 0.000000 0.000000 0.000000 0.000000 -0.000000 0.000000 -25.546028 -0.000000 0.000000 0.000000 -0.000000 0.000000 0.000000 0.000000 0.000000 0.000000 -0.000000 0.000000 -25.546028 -0.000000 0.000000 0.000000 -0.000000 0.000000 0.000000 0.000000 0.000000 0.000000
21.586643 82.983681 363.271113 0.140986 0.175819 25.290912 -0.202585 -0.098735 -25.291303 -0.000000 0.000000 0.000000 -0.000000 0.000000 0.000000 0.000000 0.000000 0.000000 -0.000000 0.000000 0.000000 -1.214834 -0.704800 0.347073 0.879217 -1.279729 -0.021674 2.518185 2.061699 -1.198428 0.000000 0.000000 0.000000 0.000000 0.000000 0.000000 -0.000000 0.000000 0.000000 0.897649 -0.122631 -0.300207 1.038518 -1.045178 0.125944 0.297447 -0.859898 -0.636105 0.000000 0.000000 0.000000 0.000000 0.000000 0.000000 -0.202585 -0.098735 -25.291303 -0.000000 0.000000 0.000000 3.265233 -6.745446 -7.099819 0.000000 0.000000 0.000000 -0.202585 -0.098735 -25.291303 -0.400626 -0.712326 -0.133339 4.588267 -3.638481 1.258828 0.000000 0.000000 0.000000
21.658640 82.977717 363.162646 0.263018 0.308039 25.045992 -0.368694 -0.167722 -25.047239 -0.000000 0.000000 0.000000 -0.000000 0.000000 0.000000 0.000000 0.000000 0.000000 -0.000000 0.000000 0.000000 -2.111448 -1.309339 0.600018 1.863183 -2.136273 -0.124593 4.227843 3.343287 -2.138409 0.000000 0.000000 0.000000 0.000000 0.000000 0.000000 0.588026 -1.022225 -0.314870 1.071851 0.768110 -0.257191 1.796571 -1.972472 0.289796 0.653294 -1.511295 -1.192619 0.000000 0.000000 0.000000 0.000000 0.000000 0.000000 -0.368694 -0.167722 -25.047239 -0.000000 0.000000 0.000000 5.084846 -12.023947 -11.977162 0.000000 0.000000 0.000000 -0.368694 -0.167722 -25.047239 -0.680144 -1.247071 -0.233620 8.227933 -6.867039 2.844882 0.000000 0.000000 0.000000
21.719020 82.971174 363.088235 0.366128 0.396708 24.811525 -0.498807 -0.206440 -24.813691 -0.000000 0.000000 0.000000 -0.000000 0.000000 0.000000 0.000000 0.000000 0.000000 -0.496559 -0.780653 -0.008379 -2.202834 -1.034188 0.806847 2.934666 -2.631543 -0.286902 5.052721 3.933959 -2.697416 0.000000 0.000000 0.000000 0.000000 0.000000 0.000000 0.843838 -1.425667 -0.439893 1.457549 1.026029 -0.358083 2.226470 -2.769067 0.484117 1.106842 -1.960456 -1.690761 0.000000 0.000000 0.000000 0.000000 0.000000 0.000000 -0.498807 -0.206440 -24.813691 -0.000000 0.000000 0.000000 5.820367 -15.154758 -14.408196 0.000000 0.000000 0.000000 -0.498807 -0.206440 -24.813691 -0.836447 -1.602956 -0.297455 10.935623 -9.721506 4.694083 0.000000 0.000000 0.000000
21.767782 82.964052 363.047881 0.450342 0.441863 24.587703 -0.593364 -0.214402 -24.590550 -0.000000 0.000000 0.000000 -0.000000 0.000000 0.000000 0.000000 0.000000 0.000000 -0.588551 -1.109741 -0.004464 -2.398289 -1.111102 0.910345 4.091108 -2.806367 -0.499560 4.929231 3.900805 -2.794557 0.000000 0.000000 0.000000 0.000000 0.000000 0.000000 1.075445 -1.758506 -0.544737 1.754357 1.200762 -0.438558 2.291639 -3.425523 0.701618 1.692593 -2.218216 -2.148247 0.000000 0.000000 0.000000 0.000000 0.000000 0.000000 -0.593364 -0.214402 -24.590550 -0.000000 0.000000 0.000000 5.774546 -15.953712 -14.377475 0.000000 0.000000 0.000000 -0.593364 -0.214402 -24.590550 -0.868217 -1.779220 -0.322724 12.736139 -12.270505 6.768078 0.000000 0.000000 0.000000
21.804927 82.956351 363.041584 0.515680 0.443523 24.374660 -0.652761 -0.191151 -24.377745 -0.000000 0.000000 0.000000 -0.000000 0.000000 0.000000 0.000000 0.000000 0.000000 -0.643684 -1.473452 0.003150 -2.332922 -1.055537 0.934328 5.341401 -2.683810 -0.763975 3.817503 3.283565 -2.393771 0.000000 0.000000 0.000000 0.000000 0.000000 0.000000 1.283639 -2.021529 -0.630298 1.968453 1.292635 -0.497650 1.965537 -3.934966 0.936442 2.438721 -2.297036 -2.577917 0.000000 0.000000 0.000000 0.000000 0.000000 0.000000 -0.652761 -0.191151 -24.377745 -0.000000 0.000000 0.000000 4.999199 -14.420850 -11.897896 0.000000 0.000000 0.000000 -0.652761 -0.191151 -24.377745 -0.774917 -1.775459 -0.308599 13.642474 -14.593357 9.048400 0.000000 0.000000 0.000000
21.846236 82.954164 363.056655 0.585475 0.403949 24.273534 -0.699776 -0.127534 -24.276377 -0.000000 0.000000 0.000000 -0.000000 0.000000 0.000000 0.000000 0.000000 0.000000 -0.719549 -1.958843 0.012562 -1.852257 -0.641788 0.845020 7.030000 -2.853838 -1.047454 0.182268 1.962565 -0.887761 0.000000 0.000000 0.000000 0.000000 0.000000 0.000000 1.464406 -2.167775 -0.686800 2.174513 1.070940 -0.549806 0.529310 -4.334283 1.318799 4.266119 -2.320367 -3.266988 0.000000 0.000000 0.000000 0.000000 0.000000 0.000000 -0.699776 -0.127534 -24.276377 -0.000000 0.000000 0.000000 0.328464 -5.895418 0.112632 0.000000 0.000000 0.000000 -0.699776 -0.127534 -24.276377 -0.361421 -1.457585 -0.212126 16.100361 -21.574638 16.730856 0.000000 0.000000 0.000000
21.864444 82.945865 363.133278 0.622178 0.312287 24.158424 -0.695490 -0.030290 -24.160304 -0.000000 0.000000 0.000000 -0.000000 0.000000 0.000000 0.000000 0.000000 0.000000 -0.679544 -2.425413 0.031402 -1.192493 -0.281161 0.669109 9.286294 -2.347537 -1.561586 -3.315991 -0.029836 0.511816 0.000000 0.000000 0.000000 0.000000 0.000000 0.000000 1.645739 -2.276954 -0.735287 2.219952 0.892622 -0.555248 -0.547492 -4.364725 1.549806 5.179526 -0.804605 -3.834535 0.000000 0.000000 0.000000 0.000000 0.000000 0.000000 -0.695490 -0.030290 -24.160304 -0.000000 0.000000 0.000000 -3.330878 -1.161277 7.676250 0.000000 0.000000 0.000000 -0.695490 -0.030290 -24.160304 -0.061425 -1.101100 -0.129688 10.670808 -17.783859 13.532127 0.000000 0.000000 0.000000
21.877144 82.921099 363.196984 0.653718 0.226971 23.785206 -0.689731 0.055966 -23.786164 -0.000000 0.000000 0.000000 -0.000000 0.000000 0.000000 0.000000 0.000000 0.000000 -0.582608 -2.882262 0.055708 -0.198810 0.517053 0.339174 10.599309 -0.936205 -2.066631 -7.983513 -0.453803 1.811973 0.000000 0.000000 0.000000 0.000000 0.000000 0.000000 1.742803 -2.317538 -0.757437 2.193862 0.734765 -0.537358 -2.187524 -4.043551 1.776620 6.954942 -1.304648 -4.213713 0.000000 0.000000 0.000000 0.000000 0.000000 0.000000 -0.689731 0.055966 -23.786164 -0.000000 0.000000 0.000000 -6.523591 2.905660 13.379976 0.000000 0.000000 0.000000 -0.689731 0.055966 -23.786164 -0.000000 0.000000 0.000000 9.297106 -21.771694 17.998421 0.000000 0.000000 0.000000
21.848638 82.901571 363.313851 0.614173 0.108022 23.369812 -0.606637 0.144462 -23.369626 -0.000000 0.000000 0.000000 -0.000000 0.000000 0.000000 0.000000 0.000000 0.000000 -0.457792 -3.359184 0.084262 0.654352 0.848922 0.060457 11.032964 0.130202 -2.373002 -9.293570 -1.546744 2.196441 0.000000 0.000000 0.000000 0.000000 0.000000 0.000000 1.841010 -2.345658 -0.777133 2.068999 0.708038 -0.499361 -3.379183 -3.795535 1.923326 8.465924 -1.026175 -4.713906 0.000000 0.000000 0.000000 0.000000 0.000000 0.000000 -0.606637 0.144462 -23.369626 -0.000000 0.000000 0.000000 -8.770116 6.095152 16.874115 0.000000 0.000000 0.000000 -0.606637 0.144462 -23.369626 1.059558 0.541877 0.193404 6.913624 -25.335026 22.358807 0.000000 0.000000 0.000000
21.798347 82.899482 363.483858 0.537227 -0.059349 23.138457 -0.470694 0.265676 -23.137087 -0.000000 0.000000 0.000000 -0.000000 0.000000 0.000000 0.000000 0.000000 0.000000 -0.254326 -3.613947 0.113949 1.303205 0.859390 -0.175742 11.472009 2.520515 -3.045959 -9.175286 -5.164184 2.552818 0.000000 0.000000 0.000000 0.000000 0.000000 0.000000 1.919422 -2.387634 -0.796788 1.941718 0.768803 -0.461880 -4.584640 -2.965102 1.991977 9.202500 -1.722552 -4.500083 0.000000 0.000000 0.000000 0.000000 0.000000 0.000000 -0.470694 0.265676 -23.137087 -0.000000 0.000000 0.000000 -11.220588 9.638677 20.328769 0.000000 0.000000 0.000000 -0.470694 0.265676 -23.137087 1.213714 0.563980 0.215041 12.945246 -29.454297 26.504391 0.000000 0.000000 0.000000
21.731216 82.911364 363.679257 0.438414 -0.226657 23.121714 -0.314200 0.380603 -23.119803 -0.000000 0.000000 0.000000 -0.842933 -0.495519 -0.090267 0.000000 0.000000 0.000000 -0.088461 -3.562268 0.128982 1.989231 0.813400 -0.418403 11.138871 2.900628 -3.042362 -8.217010 -5.196779 2.170854 0.000000 0.000000 0.000000 0.000000 0.000000 0.000000 2.000399 -2.411248 -0.813026 1.646955 0.943818 -0.378386 -5.113748 -2.724807 1.989982 9.437062 -1.222250 -4.450048 0.000000 0.000000 0.000000 0.000000 0.000000 0.000000 -0.314200 0.380603 -23.119803 -0.000000 0.000000 0.000000 -9.880635 11.195498 17.324861 0.000000 0.000000 0.000000 -0.314200 0.380603 -23.119803 0.884205 0.954139 0.213582 10.460477 -26.403984 22.225892 0.000000 0.000000 0.000000
21.642247 82.944810 363.843448 0.287371 -0.337315 23.208435 -0.131193 0.423263 -23.207104 -0.000000 0.000000 0.000000 -0.831283 -0.782260 -0.198337 0.000000 0.000000 0.000000 0.036297 -3.297682 0.131390 2.649314 0.498495 -0.615477 9.432332 3.991810 -2.862161 -6.458241 -6.899242 2.089035 0.000000 0.000000 0.000000 0.000000 0.000000 0.000000 2.023995 -2.380000 -0.810038 1.343205 0.997872 -0.282648 -5.375479 -2.200958 1.908261 10.365575 -0.334808 -4.912042 0.000000 0.000000 0.000000 0.000000 0.000000 0.000000 -0.131193 0.423263 -23.207104 -0.000000 0.000000 0.000000 -7.814191 4.541038 15.491628 0.000000 0.000000 0.000000 -0.131193 0.423263 -23.207104 -0.000000 0.000000 0.000000 8.722137 -19.466373 15.263939 0.000000 0.000000 0.000000
21.585266 82.980074 363.998080 0.182767 -0.479903 23.316790 0.022110 0.513051 -23.316123 -0.000000 0.000000 0.000000 -0.253254 -1.366990 -0.473277 0.000000 0.000000 0.000000 0.131629 -2.948245 0.126978 2.975929 0.106125 -0.698972 7.406754 5.437722 -2.657756 -4.054578 -7.611976 1.632677 0.000000 0.000000 0.000000 0.000000 0.000000 0.000000 1.992561 -2.317398 -0.792911 1.073540 0.831802 -0.176455 -5.966440 -0.464905 1.776164 11.759075 -3.084458 -4.659550 0.000000 0.000000 0.000000 0.000000 0.000000 0.000000 0.022110 0.513051 -23.316123 -0.000000 0.000000 0.000000 -6.958435 -0.384102 15.434054 0.000000 0.000000 0.000000 0.442273 1.295855 -23.115437 -0.079127 -0.884880 -0.207930 7.733637 -15.948055 11.435049 0.000000 0.000000 0.000000
